{
	"asset":{
		"generator":"Khronos glTF Blender I/O v4.0.44",
		"version":"2.0"
	},
	"scene":0,
	"scenes":[
		{
			"name":"Scene",
			"nodes":[
				0,
				1
			]
		}
	],
	"nodes":[
		{
			"mesh":0,
			"name":"sobc_legs",
			"translation":[
				0.00016479492478538305,
				0.017500033602118492,
				0.0003845214669127017
			]
		},
		{
			"mesh":1,
			"name":"sobc_body",
			"translation":[
				0,
				0.37869560718536377,
				0
			]
		}
	],
	"materials":[
		{
			"doubleSided":true,
			"name":"wood_Mat",
			"normalTexture":{
				"index":0,
				"scale":0.5
			},
			"pbrMetallicRoughness":{
				"baseColorTexture":{
					"index":1
				},
				"metallicRoughnessTexture":{
					"index":2
				}
			}
		},
		{
			"doubleSided":true,
			"name":"upholstery_Mat",
			"normalTexture":{
				"index":3,
				"scale":0.5
			},
			"pbrMetallicRoughness":{
				"baseColorTexture":{
					"index":4
				},
				"metallicRoughnessTexture":{
					"index":5
				}
			}
		}
	],
	"meshes":[
		{
			"name":"Mesh",
			"primitives":[
				{
					"attributes":{
						"POSITION":0,
						"NORMAL":1,
						"TEXCOORD_0":2,
						"TANGENT":3
					},
					"indices":4,
					"material":0
				}
			]
		},
		{
			"name":"Mesh.001",
			"primitives":[
				{
					"attributes":{
						"POSITION":5,
						"NORMAL":6,
						"TEXCOORD_0":7,
						"TANGENT":8
					},
					"indices":9,
					"material":1
				}
			]
		}
	],
	"textures":[
		{
			"sampler":0,
			"source":0
		},
		{
			"sampler":0,
			"source":1
		},
		{
			"sampler":0,
			"source":2
		},
		{
			"sampler":0,
			"source":3
		},
		{
			"sampler":0,
			"source":4
		},
		{
			"sampler":0,
			"source":5
		}
	],
	"images":[
		{
			"mimeType":"image/jpeg",
			"name":"sofacabochon_wood_Mat_Normal",
			"uri":"sofacabochon_wood_Mat_Normal.jpg"
		},
		{
			"mimeType":"image/jpeg",
			"name":"sofacabochon_wood_Mat_BaseColor",
			"uri":"sofacabochon_wood_Mat_BaseColor.jpg"
		},
		{
			"mimeType":"image/png",
			"name":"sofacabochon_wood_Mat_Metallic-sofacabochon_wood_Mat_Roughness",
			"uri":"sofacabochon_wood_Mat_Metallic-sofacabochon_wood_Mat_Roughness.png"
		},
		{
			"mimeType":"image/jpeg",
			"name":"sofacabochon_upholstery_Mat_Normal",
			"uri":"sofacabochon_upholstery_Mat_Normal.jpg"
		},
		{
			"mimeType":"image/jpeg",
			"name":"sofacabochon_upholstery_Mat_BaseColor",
			"uri":"sofacabochon_upholstery_Mat_BaseColor.jpg"
		},
		{
			"mimeType":"image/png",
			"name":"sofacabochon_upholstery_Mat_Metallic-sofacabochon_upholstery_Mat_Roughness",
			"uri":"sofacabochon_upholstery_Mat_Metallic-sofacabochon_upholstery_Mat_Roughness.png"
		}
	],
	"accessors":[
		{
			"bufferView":0,
			"componentType":5126,
			"count":2736,
			"max":[
				0.9467517137527466,
				0.017500020563602448,
				0.3673132359981537
			],
			"min":[
				-0.9467517137527466,
				-0.01750003732740879,
				-0.3673132359981537
			],
			"type":"VEC3"
		},
		{
			"bufferView":1,
			"componentType":5126,
			"count":2736,
			"type":"VEC3"
		},
		{
			"bufferView":2,
			"componentType":5126,
			"count":2736,
			"type":"VEC2"
		},
		{
			"bufferView":3,
			"componentType":5126,
			"count":2736,
			"type":"VEC4"
		},
		{
			"bufferView":4,
			"componentType":5123,
			"count":13824,
			"type":"SCALAR"
		},
		{
			"bufferView":5,
			"componentType":5126,
			"count":15666,
			"max":[
				1.0363250970840454,
				0.3471377491950989,
				0.4528796672821045
			],
			"min":[
				-1.0363250970840454,
				-0.3471377193927765,
				-0.4528796672821045
			],
			"type":"VEC3"
		},
		{
			"bufferView":6,
			"componentType":5126,
			"count":15666,
			"type":"VEC3"
		},
		{
			"bufferView":7,
			"componentType":5126,
			"count":15666,
			"type":"VEC2"
		},
		{
			"bufferView":8,
			"componentType":5126,
			"count":15666,
			"type":"VEC4"
		},
		{
			"bufferView":9,
			"componentType":5123,
			"count":91152,
			"type":"SCALAR"
		}
	],
	"bufferViews":[
		{
			"buffer":0,
			"byteLength":32832,
			"byteOffset":0,
			"target":34962
		},
		{
			"buffer":0,
			"byteLength":32832,
			"byteOffset":32832,
			"target":34962
		},
		{
			"buffer":0,
			"byteLength":21888,
			"byteOffset":65664,
			"target":34962
		},
		{
			"buffer":0,
			"byteLength":43776,
			"byteOffset":87552,
			"target":34962
		},
		{
			"buffer":0,
			"byteLength":27648,
			"byteOffset":131328,
			"target":34963
		},
		{
			"buffer":0,
			"byteLength":187992,
			"byteOffset":158976,
			"target":34962
		},
		{
			"buffer":0,
			"byteLength":187992,
			"byteOffset":346968,
			"target":34962
		},
		{
			"buffer":0,
			"byteLength":125328,
			"byteOffset":534960,
			"target":34962
		},
		{
			"buffer":0,
			"byteLength":250656,
			"byteOffset":660288,
			"target":34962
		},
		{
			"buffer":0,
			"byteLength":182304,
			"byteOffset":910944,
			"target":34963
		}
	],
	"samplers":[
		{
			"magFilter":9729,
			"minFilter":9987
		}
	],
	"buffers":[
		{
			"byteLength":1093248,
			"uri":"sofa.bin"
		}
	]
}
