{
	"asset":{
		"generator":"Khronos glTF Blender I/O v4.0.44",
		"version":"2.0"
	},
	"scene":0,
	"scenes":[
		{
			"name":"Scene",
			"nodes":[
				0
			]
		}
	],
	"nodes":[
		{
			"mesh":0,
			"name":"Cube",
			"scale":[
				0.7793678045272827,
				0.7793678045272827,
				0.7793678045272827
			]
		}
	],
	"meshes":[
		{
			"name":"Cube.001",
			"primitives":[
				{
					"attributes":{
						"POSITION":0,
						"NORMAL":1,
						"TEXCOORD_0":2,
						"TANGENT":3
					},
					"indices":4
				}
			]
		}
	],
	"accessors":[
		{
			"bufferView":0,
			"componentType":5126,
			"count":1649,
			"max":[
				1.2830911874771118,
				1.2830911874771118,
				1.2830911874771118
			],
			"min":[
				-1.2830911874771118,
				-1.2830911874771118,
				-1.2830911874771118
			],
			"type":"VEC3"
		},
		{
			"bufferView":1,
			"componentType":5126,
			"count":1649,
			"type":"VEC3"
		},
		{
			"bufferView":2,
			"componentType":5126,
			"count":1649,
			"type":"VEC2"
		},
		{
			"bufferView":3,
			"componentType":5126,
			"count":1649,
			"type":"VEC4"
		},
		{
			"bufferView":4,
			"componentType":5123,
			"count":9216,
			"type":"SCALAR"
		}
	],
	"bufferViews":[
		{
			"buffer":0,
			"byteLength":19788,
			"byteOffset":0,
			"target":34962
		},
		{
			"buffer":0,
			"byteLength":19788,
			"byteOffset":19788,
			"target":34962
		},
		{
			"buffer":0,
			"byteLength":13192,
			"byteOffset":39576,
			"target":34962
		},
		{
			"buffer":0,
			"byteLength":26384,
			"byteOffset":52768,
			"target":34962
		},
		{
			"buffer":0,
			"byteLength":18432,
			"byteOffset":79152,
			"target":34963
		}
	],
	"buffers":[
		{
			"byteLength":97584,
			"uri":"sphere.bin"
		}
	]
}
