{
	"asset":{
		"generator":"Khronos glTF Blender I/O v4.0.44",
		"version":"2.0"
	},
	"extensionsUsed":[
		"KHR_materials_specular",
		"KHR_materials_ior"
	],
	"scene":0,
	"scenes":[
		{
			"name":"Scene",
			"nodes":[
				0
			]
		}
	],
	"nodes":[
		{
			"mesh":0,
			"name":"uploads_files_72531_Winged_Victory",
			"rotation":[
				0.7071068286895752,
				0,
				0,
				0.7071068286895752
			]
		}
	],
	"materials":[
		{
			"doubleSided":true,
			"extensions":{
				"KHR_materials_specular":{
					"specularFactor":0
				},
				"KHR_materials_ior":{
					"ior":1.4500000476837158
				}
			},
			"name":"Winged_Victory_Stamdard",
			"pbrMetallicRoughness":{
				"baseColorFactor":[
					0.800000011920929,
					0.800000011920929,
					0.800000011920929,
					1
				],
				"metallicFactor":0
			}
		}
	],
	"meshes":[
		{
			"name":"uploads_files_72531_Winged_Victory",
			"primitives":[
				{
					"attributes":{
						"POSITION":0,
						"NORMAL":1,
						"TEXCOORD_0":2,
						"TANGENT":3
					},
					"indices":4,
					"material":0
				}
			]
		}
	],
	"accessors":[
		{
			"bufferView":0,
			"componentType":5126,
			"count":18455,
			"max":[
				0.5215327739715576,
				0.3504646122455597,
				-0.0003142454952467233
			],
			"min":[
				-0.4677680730819702,
				-0.5371643900871277,
				-1.998425841331482
			],
			"type":"VEC3"
		},
		{
			"bufferView":1,
			"componentType":5126,
			"count":18455,
			"type":"VEC3"
		},
		{
			"bufferView":2,
			"componentType":5126,
			"count":18455,
			"type":"VEC2"
		},
		{
			"bufferView":3,
			"componentType":5126,
			"count":18455,
			"type":"VEC4"
		},
		{
			"bufferView":4,
			"componentType":5123,
			"count":100338,
			"type":"SCALAR"
		}
	],
	"bufferViews":[
		{
			"buffer":0,
			"byteLength":221460,
			"byteOffset":0,
			"target":34962
		},
		{
			"buffer":0,
			"byteLength":221460,
			"byteOffset":221460,
			"target":34962
		},
		{
			"buffer":0,
			"byteLength":147640,
			"byteOffset":442920,
			"target":34962
		},
		{
			"buffer":0,
			"byteLength":295280,
			"byteOffset":590560,
			"target":34962
		},
		{
			"buffer":0,
			"byteLength":200676,
			"byteOffset":885840,
			"target":34963
		}
	],
	"buffers":[
		{
			"byteLength":1086516,
			"uri":"statue.bin"
		}
	]
}
