{
	"asset":{
		"generator":"Khronos glTF Blender I/O v4.0.44",
		"version":"2.0"
	},
	"scene":0,
	"scenes":[
		{
			"name":"Scene",
			"nodes":[
				0,
				1,
				2,
				3
			]
		}
	],
	"nodes":[
		{
			"mesh":0,
			"name":"Plane"
		},
		{
			"mesh":1,
			"name":"Cube",
			"translation":[
				0.820253849029541,
				1.4818267822265625,
				6.615941524505615
			]
		},
		{
			"mesh":2,
			"name":"Cube.001",
			"translation":[
				0.820253849029541,
				1.4818267822265625,
				3.9763121604919434
			]
		},
		{
			"mesh":3,
			"name":"Cube.002",
			"translation":[
				0.820253849029541,
				2.05635929107666,
				5.28885555267334
			]
		}
	],
	"meshes":[
		{
			"name":"Mesh",
			"primitives":[
				{
					"attributes":{
						"POSITION":0,
						"NORMAL":1,
						"TEXCOORD_0":2,
						"TANGENT":3
					},
					"indices":4
				}
			]
		},
		{
			"name":"Cube.001",
			"primitives":[
				{
					"attributes":{
						"POSITION":5,
						"NORMAL":6,
						"TEXCOORD_0":7,
						"TANGENT":8
					},
					"indices":9
				}
			]
		},
		{
			"name":"Cube.002",
			"primitives":[
				{
					"attributes":{
						"POSITION":10,
						"NORMAL":11,
						"TEXCOORD_0":12,
						"TANGENT":13
					},
					"indices":9
				}
			]
		},
		{
			"name":"Cube.003",
			"primitives":[
				{
					"attributes":{
						"POSITION":14,
						"NORMAL":15,
						"TEXCOORD_0":16,
						"TANGENT":17
					},
					"indices":18
				}
			]
		}
	],
	"accessors":[
		{
			"bufferView":0,
			"componentType":5126,
			"count":10427,
			"max":[
				8.000000953674316,
				4.0002217292785645,
				8.000000953674316
			],
			"min":[
				-8.000000953674316,
				-0.15224753320217133,
				-8.000000953674316
			],
			"type":"VEC3"
		},
		{
			"bufferView":1,
			"componentType":5126,
			"count":10427,
			"type":"VEC3"
		},
		{
			"bufferView":2,
			"componentType":5126,
			"count":10427,
			"type":"VEC2"
		},
		{
			"bufferView":3,
			"componentType":5126,
			"count":10427,
			"type":"VEC4"
		},
		{
			"bufferView":4,
			"componentType":5123,
			"count":48768,
			"type":"SCALAR"
		},
		{
			"bufferView":5,
			"componentType":5126,
			"count":24,
			"max":[
				0.5,
				0.5,
				0.12056732177734375
			],
			"min":[
				-0.5,
				-0.5,
				-0.12056732177734375
			],
			"type":"VEC3"
		},
		{
			"bufferView":6,
			"componentType":5126,
			"count":24,
			"type":"VEC3"
		},
		{
			"bufferView":7,
			"componentType":5126,
			"count":24,
			"type":"VEC2"
		},
		{
			"bufferView":8,
			"componentType":5126,
			"count":24,
			"type":"VEC4"
		},
		{
			"bufferView":9,
			"componentType":5123,
			"count":36,
			"type":"SCALAR"
		},
		{
			"bufferView":10,
			"componentType":5126,
			"count":24,
			"max":[
				0.5,
				0.5,
				0.12056732177734375
			],
			"min":[
				-0.5,
				-0.5,
				-0.12056732177734375
			],
			"type":"VEC3"
		},
		{
			"bufferView":11,
			"componentType":5126,
			"count":24,
			"type":"VEC3"
		},
		{
			"bufferView":12,
			"componentType":5126,
			"count":24,
			"type":"VEC2"
		},
		{
			"bufferView":13,
			"componentType":5126,
			"count":24,
			"type":"VEC4"
		},
		{
			"bufferView":14,
			"componentType":5126,
			"count":24,
			"max":[
				0.6027620434761047,
				0.12056739628314972,
				1.653834342956543
			],
			"min":[
				-0.6027620434761047,
				-0.12056739628314972,
				-1.653834342956543
			],
			"type":"VEC3"
		},
		{
			"bufferView":15,
			"componentType":5126,
			"count":24,
			"type":"VEC3"
		},
		{
			"bufferView":16,
			"componentType":5126,
			"count":24,
			"type":"VEC2"
		},
		{
			"bufferView":17,
			"componentType":5126,
			"count":24,
			"type":"VEC4"
		},
		{
			"bufferView":18,
			"componentType":5123,
			"count":36,
			"type":"SCALAR"
		}
	],
	"bufferViews":[
		{
			"buffer":0,
			"byteLength":125124,
			"byteOffset":0,
			"target":34962
		},
		{
			"buffer":0,
			"byteLength":125124,
			"byteOffset":125124,
			"target":34962
		},
		{
			"buffer":0,
			"byteLength":83416,
			"byteOffset":250248,
			"target":34962
		},
		{
			"buffer":0,
			"byteLength":166832,
			"byteOffset":333664,
			"target":34962
		},
		{
			"buffer":0,
			"byteLength":97536,
			"byteOffset":500496,
			"target":34963
		},
		{
			"buffer":0,
			"byteLength":288,
			"byteOffset":598032,
			"target":34962
		},
		{
			"buffer":0,
			"byteLength":288,
			"byteOffset":598320,
			"target":34962
		},
		{
			"buffer":0,
			"byteLength":192,
			"byteOffset":598608,
			"target":34962
		},
		{
			"buffer":0,
			"byteLength":384,
			"byteOffset":598800,
			"target":34962
		},
		{
			"buffer":0,
			"byteLength":72,
			"byteOffset":599184,
			"target":34963
		},
		{
			"buffer":0,
			"byteLength":288,
			"byteOffset":599256,
			"target":34962
		},
		{
			"buffer":0,
			"byteLength":288,
			"byteOffset":599544,
			"target":34962
		},
		{
			"buffer":0,
			"byteLength":192,
			"byteOffset":599832,
			"target":34962
		},
		{
			"buffer":0,
			"byteLength":384,
			"byteOffset":600024,
			"target":34962
		},
		{
			"buffer":0,
			"byteLength":288,
			"byteOffset":600408,
			"target":34962
		},
		{
			"buffer":0,
			"byteLength":288,
			"byteOffset":600696,
			"target":34962
		},
		{
			"buffer":0,
			"byteLength":192,
			"byteOffset":600984,
			"target":34962
		},
		{
			"buffer":0,
			"byteLength":384,
			"byteOffset":601176,
			"target":34962
		},
		{
			"buffer":0,
			"byteLength":72,
			"byteOffset":601560,
			"target":34963
		}
	],
	"buffers":[
		{
			"byteLength":601632,
			"uri":"test_scene.bin"
		}
	]
}
